<svg width="37" height="37" viewBox="0 0 37 37" fill="none" xmlns="http://www.w3.org/2000/svg">
<g clip-path="url(#clip0_126_2074)">
<path d="M12.311 18.6353L14.6753 18.0017L15.3088 20.366L12.9445 20.9995L12.311 18.6353ZM13.578 23.3638L15.9423 22.7303L16.5758 25.0946L14.2116 25.7281L13.578 23.3638ZM17.0396 17.3682L19.4039 16.7347L20.0374 19.099L17.6731 19.7325L17.0396 17.3682ZM18.3066 22.0968L20.6709 21.4633L21.3044 23.8276L18.9401 24.4611L18.3066 22.0968ZM21.7681 16.1012L24.1324 15.4677L24.7659 17.832L22.4016 18.4655L21.7681 16.1012ZM23.0351 20.8298L25.3994 20.1963L26.0329 22.5605L23.6686 23.1941L23.0351 20.8298Z" fill="#16629C"/>
<path d="M13.4313 32.2724L29.9812 27.8379C31.2851 27.4885 32.0613 26.144 31.7119 24.8401L27.2774 8.29018C26.928 6.98629 25.5835 6.21004 24.2796 6.55942L21.9153 7.19292L21.2818 4.82865L18.9176 5.46215L19.5511 7.82643L12.4583 9.72694L11.8248 7.36267L9.46048 7.99617L10.094 10.3604L7.72971 10.994C6.42581 11.3433 5.64957 12.6878 5.99894 13.9917L10.4335 30.5416C10.7829 31.8455 12.1274 32.6218 13.4313 32.2724ZM25.5466 11.288L29.3488 25.4733L12.7978 29.9081L8.99672 15.7225L25.5466 11.288Z" fill="#16629C"/>
</g>
<defs>
<clipPath id="clip0_126_2074">
<rect width="29.3721" height="29.3721" fill="white" transform="translate(0.551758 7.84912) rotate(-15)"/>
</clipPath>
</defs>
</svg>
