<svg width="17" height="18" viewBox="0 0 17 18" fill="none" xmlns="http://www.w3.org/2000/svg">
<path opacity="0.4" d="M8.57347 15.9211C12.4029 15.9211 15.5073 12.8167 15.5073 8.98729C15.5073 5.15785 12.4029 2.05347 8.57347 2.05347C4.74403 2.05347 1.63965 5.15785 1.63965 8.98729C1.63965 12.8167 4.74403 15.9211 8.57347 15.9211Z" fill="#16629C"/>
<path d="M11.1458 11.7122C11.0557 11.7122 10.9655 11.6914 10.8823 11.6359L8.73284 10.3532C8.19894 10.0342 7.80371 9.3339 7.80371 8.71679V5.87392C7.80371 5.58963 8.03946 5.35388 8.32375 5.35388C8.60803 5.35388 8.84378 5.58963 8.84378 5.87392V8.71679C8.84378 8.9664 9.0518 9.3339 9.26675 9.45871L11.4162 10.7415C11.6659 10.8871 11.7421 11.206 11.5965 11.4556C11.4925 11.6221 11.3192 11.7122 11.1458 11.7122Z" fill="#16629C"/>
</svg>
