<svg width="235" height="33" viewBox="0 0 235 33" fill="none" xmlns="http://www.w3.org/2000/svg">
<path fill-rule="evenodd" clip-rule="evenodd" d="M63.1057 19.1316C53.0371 22.0508 41.4123 24.9559 30.2292 25.6813C20.6709 26.3004 11.4383 25.3388 3.88139 21.2472C2.81613 20.6711 1.48213 21.0672 0.906032 22.1333C0.329052 23.1986 0.725996 24.5326 1.79126 25.1096C10.035 29.5717 20.0869 30.7389 30.5129 30.0627C41.8971 29.325 53.7318 26.4005 64.0024 23.4392C65.1941 25.8534 67.6619 28.1042 72.009 29.7649C78.686 32.3161 87.8026 32.2845 97.4066 30.8468C111.336 28.7629 126.32 23.7931 135.954 20.2619C136.349 20.1178 136.937 19.8886 137.657 19.5865C137.877 20.0713 138.123 20.5491 138.395 21.018C140.757 25.1052 144.938 28.4099 149.197 29.5902C176.211 37.0742 207.738 28.1069 233.408 20.809C234.567 20.4779 235.243 19.2625 234.919 18.0971C234.585 16.9317 233.373 16.2546 232.205 16.5857C207.255 23.6799 176.623 32.6305 150.365 25.3581C147.133 24.4623 143.989 21.9226 142.198 18.8207C141.996 18.4747 141.82 18.1208 141.653 17.7616C145.192 16.0079 149.355 13.563 151.594 10.9459C153.895 8.26299 154.466 5.39916 152.464 2.69429C150.743 0.381982 148.134 0.185261 145.421 1.38401C142.496 2.66794 139.484 5.6696 138.509 7.07824C136.683 9.70934 136.103 12.5635 136.437 15.3466C135.576 15.7101 134.877 15.9806 134.446 16.1387C125.023 19.5918 110.377 24.4659 96.7568 26.5042C87.9932 27.8162 79.6687 27.9909 73.5757 25.6637C70.9771 24.6705 69.2602 23.5113 68.3284 22.1658C70.1673 21.6161 71.9405 21.0751 73.6345 20.5587C76.9849 19.5374 83.9605 17.8468 88.9443 14.8337C92.9076 12.438 95.5949 9.17895 95.4386 5.09354C95.3587 2.99464 94.1441 1.59387 92.2112 0.80876C89.3227 -0.363643 84.3275 0.203665 82.4675 0.598857C76.8259 1.79497 69.2962 6.74631 65.5709 12.3255C64.0841 14.5518 63.1997 16.8808 63.1057 19.1316ZM67.74 17.7599C69.3339 17.2804 70.8743 16.8096 72.3541 16.3582C75.4814 15.4045 82.0187 13.8896 86.6723 11.0758C89.1366 9.5864 91.1485 7.80191 91.0511 5.26126C91.0432 5.06367 90.8473 5.00748 90.6743 4.92668C90.4064 4.80286 90.1 4.71765 89.7733 4.6509C87.5628 4.19951 84.5936 4.63596 83.3782 4.89415C78.6447 5.89794 72.3479 10.0826 69.2224 14.7643C68.562 15.7532 68.036 16.7605 67.74 17.7599ZM140.775 13.3249C142.839 12.2632 144.999 10.9792 146.703 9.58202C147.607 8.83993 148.371 8.0768 148.855 7.28466C149.258 6.62952 149.417 5.95853 148.934 5.31042C148.74 5.04783 148.451 5.0426 148.152 5.09178C147.836 5.14447 147.511 5.25685 147.186 5.40175C145.043 6.34494 142.83 8.54837 142.119 9.58202C141.284 10.7808 140.872 12.0489 140.775 13.3249Z" fill="#5BB6D2"/>
</svg>
