<svg width="17" height="18" viewBox="0 0 17 18" fill="none" xmlns="http://www.w3.org/2000/svg">
<path opacity="0.4" d="M8.51732 4.34155V15.4565C8.39945 15.4565 8.27464 15.4357 8.17756 15.3802L8.14983 15.3663C6.81853 14.6383 4.4957 13.8756 2.99106 13.6745L2.78998 13.6467C2.12433 13.5635 1.5835 12.9395 1.5835 12.2738V3.89779C1.5835 3.07266 2.25608 2.44862 3.0812 2.51796C4.5373 2.63583 6.74226 3.37082 7.97648 4.14047L8.14983 4.24448C8.25383 4.30689 8.38558 4.34155 8.51732 4.34155Z" fill="#16629C"/>
<path d="M15.4514 3.90492V12.274C15.4514 12.9397 14.9106 13.5637 14.2449 13.6469L14.0161 13.6747C12.5045 13.8758 10.1748 14.6454 8.84347 15.3804C8.75333 15.4359 8.64239 15.4567 8.51758 15.4567V4.34175C8.64932 4.34175 8.78106 4.30708 8.88507 4.24468L9.00295 4.16841C10.2372 3.39182 12.4491 2.6499 13.9052 2.52509H13.9468C14.7719 2.45575 15.4514 3.07286 15.4514 3.90492Z" fill="#16629C"/>
<path d="M5.57038 7.07376H4.01027C3.72598 7.07376 3.49023 6.83801 3.49023 6.55373C3.49023 6.26944 3.72598 6.03369 4.01027 6.03369H5.57038C5.85467 6.03369 6.09042 6.26944 6.09042 6.55373C6.09042 6.83801 5.85467 7.07376 5.57038 7.07376Z" fill="#16629C"/>
<path d="M6.09042 9.15384H4.01027C3.72598 9.15384 3.49023 8.91809 3.49023 8.63381C3.49023 8.34952 3.72598 8.11377 4.01027 8.11377H6.09042C6.37471 8.11377 6.61046 8.34952 6.61046 8.63381C6.61046 8.91809 6.37471 9.15384 6.09042 9.15384Z" fill="#16629C"/>
</svg>
