<svg width="20" height="17" viewBox="0 0 20 17" fill="none" xmlns="http://www.w3.org/2000/svg">
<path d="M18 0.492188H2C0.897 0.492188 0 1.38919 0 2.49219V14.4922C0 15.5952 0.897 16.4922 2 16.4922H18C19.103 16.4922 20 15.5952 20 14.4922V2.49219C20 1.38919 19.103 0.492188 18 0.492188ZM18 2.49219V3.00319L10 9.22619L2 3.00419V2.49219H18ZM2 14.4922V5.53619L9.386 11.2812C9.56111 11.4187 9.77733 11.4935 10 11.4935C10.2227 11.4935 10.4389 11.4187 10.614 11.2812L18 5.53619L18.002 14.4922H2Z" fill="#1C1C1C"/>
</svg>
