<svg width="307" height="227" viewBox="0 0 307 227" fill="none" xmlns="http://www.w3.org/2000/svg">
<g filter="url(#filter0_d_126_2032)">
<rect x="46" y="46" width="167" height="87" rx="8" fill="white" shape-rendering="crispEdges"/>
<rect x="66" y="66" width="47" height="47" rx="6" fill="#5BB6D2"/>
<path d="M83.012 96H98V82C98 81.4696 97.7893 80.9609 97.4142 80.5858C97.0391 80.2107 96.5304 80 96 80H83C81.794 80 80 80.799 80 83V97C80 99.201 81.794 100 83 100H98V98H83.012C82.55 97.988 82 97.805 82 97C82 96.195 82.55 96.012 83.012 96ZM85 84H94V86H85V84Z" fill="white"/>
<path d="M129.104 88V85.528L133.952 80.464C134.912 79.456 135.648 78.656 136.16 78.064C136.688 77.456 137.056 76.936 137.264 76.504C137.472 76.072 137.576 75.632 137.576 75.184C137.576 74.432 137.336 73.84 136.856 73.408C136.392 72.976 135.792 72.76 135.056 72.76C134.288 72.76 133.624 72.984 133.064 73.432C132.504 73.864 132.096 74.504 131.84 75.352L128.984 74.464C129.176 73.52 129.568 72.704 130.16 72.016C130.752 71.312 131.472 70.776 132.32 70.408C133.184 70.024 134.096 69.832 135.056 69.832C136.208 69.832 137.216 70.04 138.08 70.456C138.96 70.872 139.64 71.456 140.12 72.208C140.616 72.96 140.864 73.84 140.864 74.848C140.864 75.488 140.744 76.12 140.504 76.744C140.264 77.368 139.904 78.008 139.424 78.664C138.944 79.304 138.32 80.024 137.552 80.824L133.352 85.24H141.104V88H129.104ZM151.056 88.288C149.632 88.288 148.384 87.904 147.312 87.136C146.24 86.368 145.4 85.288 144.792 83.896C144.2 82.504 143.904 80.888 143.904 79.048C143.904 77.192 144.2 75.576 144.792 74.2C145.384 72.824 146.216 71.752 147.288 70.984C148.36 70.216 149.608 69.832 151.032 69.832C152.488 69.832 153.744 70.216 154.8 70.984C155.872 71.752 156.712 72.832 157.32 74.224C157.928 75.6 158.232 77.208 158.232 79.048C158.232 80.888 157.928 82.504 157.32 83.896C156.728 85.272 155.896 86.352 154.824 87.136C153.752 87.904 152.496 88.288 151.056 88.288ZM151.08 85.312C151.896 85.312 152.592 85.064 153.168 84.568C153.744 84.056 154.184 83.336 154.488 82.408C154.808 81.464 154.968 80.344 154.968 79.048C154.968 77.752 154.808 76.64 154.488 75.712C154.184 74.768 153.736 74.048 153.144 73.552C152.568 73.056 151.864 72.808 151.032 72.808C150.232 72.808 149.544 73.056 148.968 73.552C148.392 74.048 147.944 74.768 147.624 75.712C147.32 76.64 147.168 77.752 147.168 79.048C147.168 80.328 147.32 81.44 147.624 82.384C147.944 83.312 148.392 84.032 148.968 84.544C149.56 85.056 150.264 85.312 151.08 85.312ZM168.288 88.288C166.864 88.288 165.616 87.904 164.544 87.136C163.472 86.368 162.632 85.288 162.024 83.896C161.432 82.504 161.136 80.888 161.136 79.048C161.136 77.192 161.432 75.576 162.024 74.2C162.616 72.824 163.448 71.752 164.52 70.984C165.592 70.216 166.84 69.832 168.264 69.832C169.721 69.832 170.977 70.216 172.033 70.984C173.105 71.752 173.944 72.832 174.552 74.224C175.161 75.6 175.465 77.208 175.465 79.048C175.465 80.888 175.161 82.504 174.552 83.896C173.96 85.272 173.128 86.352 172.057 87.136C170.985 87.904 169.729 88.288 168.288 88.288ZM168.312 85.312C169.128 85.312 169.825 85.064 170.401 84.568C170.977 84.056 171.416 83.336 171.72 82.408C172.04 81.464 172.201 80.344 172.201 79.048C172.201 77.752 172.04 76.64 171.72 75.712C171.416 74.768 170.968 74.048 170.376 73.552C169.801 73.056 169.097 72.808 168.264 72.808C167.464 72.808 166.776 73.056 166.201 73.552C165.624 74.048 165.176 74.768 164.856 75.712C164.552 76.64 164.4 77.752 164.4 79.048C164.4 80.328 164.552 81.44 164.856 82.384C165.176 83.312 165.624 84.032 166.201 84.544C166.793 85.056 167.497 85.312 168.312 85.312ZM183.601 88V83.344H178.945V80.632H183.601V76H186.313V80.632H190.945V83.344H186.313V88H183.601Z" fill="#151318"/>
<path d="M129.328 113V101.08H130.768L135.232 107.432H134.496L138.928 101.08H140.368V113H138.784V103.064L139.344 103.24L134.912 109.48H134.784L130.4 103.24L130.896 103.064V113H129.328ZM146.968 113.192C146.136 113.192 145.394 112.995 144.743 112.6C144.093 112.205 143.581 111.667 143.207 110.984C142.834 110.291 142.647 109.517 142.647 108.664C142.647 107.8 142.829 107.032 143.191 106.36C143.565 105.688 144.066 105.16 144.695 104.776C145.335 104.381 146.05 104.184 146.839 104.184C147.479 104.184 148.045 104.301 148.536 104.536C149.037 104.76 149.458 105.069 149.799 105.464C150.152 105.848 150.418 106.291 150.6 106.792C150.792 107.283 150.887 107.795 150.887 108.328C150.887 108.445 150.877 108.579 150.856 108.728C150.845 108.867 150.829 109 150.807 109.128H143.735V107.848H149.944L149.24 108.424C149.336 107.869 149.282 107.373 149.08 106.936C148.877 106.499 148.578 106.152 148.184 105.896C147.789 105.64 147.341 105.512 146.839 105.512C146.338 105.512 145.88 105.64 145.464 105.896C145.047 106.152 144.722 106.52 144.487 107C144.263 107.469 144.173 108.029 144.215 108.68C144.173 109.309 144.269 109.864 144.503 110.344C144.749 110.813 145.09 111.181 145.527 111.448C145.976 111.704 146.461 111.832 146.984 111.832C147.56 111.832 148.045 111.699 148.44 111.432C148.834 111.165 149.154 110.824 149.4 110.408L150.648 111.048C150.477 111.443 150.21 111.805 149.847 112.136C149.495 112.456 149.074 112.712 148.584 112.904C148.104 113.096 147.565 113.192 146.968 113.192ZM152.988 113V104.376H154.444V106.056L154.204 105.912C154.417 105.368 154.758 104.947 155.228 104.648C155.708 104.339 156.268 104.184 156.908 104.184C157.526 104.184 158.076 104.323 158.556 104.6C159.046 104.877 159.43 105.261 159.708 105.752C159.996 106.243 160.14 106.797 160.14 107.416V113H158.636V107.896C158.636 107.416 158.55 107.011 158.38 106.68C158.209 106.349 157.964 106.093 157.644 105.912C157.334 105.72 156.977 105.624 156.572 105.624C156.166 105.624 155.804 105.72 155.484 105.912C155.174 106.093 154.929 106.355 154.748 106.696C154.566 107.027 154.476 107.427 154.476 107.896V113H152.988ZM165.933 113.096C165.09 113.096 164.44 112.856 163.981 112.376C163.533 111.896 163.309 111.219 163.309 110.344V105.8H161.741V104.376H162.061C162.445 104.376 162.749 104.259 162.973 104.024C163.197 103.789 163.309 103.48 163.309 103.096V102.392H164.797V104.376H166.733V105.8H164.797V110.296C164.797 110.584 164.84 110.835 164.925 111.048C165.021 111.261 165.176 111.432 165.389 111.56C165.602 111.677 165.885 111.736 166.237 111.736C166.312 111.736 166.402 111.731 166.509 111.72C166.626 111.709 166.733 111.699 166.829 111.688V113C166.69 113.032 166.536 113.053 166.365 113.064C166.194 113.085 166.05 113.096 165.933 113.096ZM172.794 113.192C171.962 113.192 171.21 113 170.538 112.616C169.866 112.221 169.333 111.683 168.938 111C168.544 110.317 168.346 109.544 168.346 108.68C168.346 107.816 168.538 107.048 168.922 106.376C169.317 105.704 169.85 105.171 170.522 104.776C171.194 104.381 171.952 104.184 172.794 104.184C173.626 104.184 174.378 104.381 175.05 104.776C175.722 105.16 176.25 105.688 176.634 106.36C177.029 107.032 177.226 107.805 177.226 108.68C177.226 109.555 177.024 110.333 176.618 111.016C176.213 111.688 175.674 112.221 175.002 112.616C174.341 113 173.605 113.192 172.794 113.192ZM172.794 111.752C173.328 111.752 173.808 111.619 174.234 111.352C174.672 111.085 175.013 110.717 175.258 110.248C175.514 109.779 175.642 109.256 175.642 108.68C175.642 108.093 175.514 107.576 175.258 107.128C175.013 106.669 174.672 106.307 174.234 106.04C173.808 105.763 173.328 105.624 172.794 105.624C172.25 105.624 171.76 105.763 171.322 106.04C170.896 106.307 170.554 106.669 170.298 107.128C170.042 107.576 169.914 108.093 169.914 108.68C169.914 109.256 170.042 109.779 170.298 110.248C170.554 110.717 170.896 111.085 171.322 111.352C171.76 111.619 172.25 111.752 172.794 111.752ZM179.327 113V104.376H180.783V105.96L180.623 105.736C180.826 105.245 181.135 104.883 181.551 104.648C181.967 104.403 182.474 104.28 183.071 104.28H183.599V105.688H182.847C182.239 105.688 181.748 105.88 181.375 106.264C181.002 106.637 180.815 107.171 180.815 107.864V113H179.327ZM188.169 113.192C187.305 113.192 186.553 112.979 185.913 112.552C185.273 112.125 184.819 111.549 184.553 110.824L185.737 110.248C185.982 110.76 186.318 111.165 186.745 111.464C187.171 111.763 187.646 111.912 188.169 111.912C188.638 111.912 189.027 111.8 189.337 111.576C189.646 111.352 189.801 111.059 189.801 110.696C189.801 110.44 189.726 110.237 189.577 110.088C189.438 109.928 189.267 109.805 189.065 109.72C188.862 109.624 188.675 109.555 188.505 109.512L187.209 109.144C186.43 108.92 185.859 108.6 185.497 108.184C185.145 107.768 184.969 107.283 184.969 106.728C184.969 106.216 185.097 105.773 185.353 105.4C185.619 105.016 185.977 104.717 186.425 104.504C186.883 104.291 187.395 104.184 187.961 104.184C188.718 104.184 189.395 104.376 189.993 104.76C190.601 105.144 191.033 105.683 191.289 106.376L190.073 106.936C189.881 106.488 189.593 106.136 189.209 105.88C188.825 105.613 188.393 105.48 187.913 105.48C187.475 105.48 187.129 105.592 186.873 105.816C186.617 106.029 186.489 106.301 186.489 106.632C186.489 106.877 186.553 107.08 186.681 107.24C186.809 107.389 186.963 107.507 187.145 107.592C187.326 107.667 187.502 107.731 187.673 107.784L189.081 108.2C189.785 108.403 190.329 108.717 190.713 109.144C191.107 109.571 191.305 110.083 191.305 110.68C191.305 111.16 191.171 111.592 190.905 111.976C190.638 112.36 190.27 112.659 189.801 112.872C189.331 113.085 188.787 113.192 188.169 113.192Z" fill="#7B7585"/>
</g>
<defs>
<filter id="filter0_d_126_2032" x="0" y="0" width="307" height="227" filterUnits="userSpaceOnUse" color-interpolation-filters="sRGB">
<feFlood flood-opacity="0" result="BackgroundImageFix"/>
<feColorMatrix in="SourceAlpha" type="matrix" values="0 0 0 0 0 0 0 0 0 0 0 0 0 0 0 0 0 0 127 0" result="hardAlpha"/>
<feOffset dx="24" dy="24"/>
<feGaussianBlur stdDeviation="35"/>
<feComposite in2="hardAlpha" operator="out"/>
<feColorMatrix type="matrix" values="0 0 0 0 0 0 0 0 0 0 0 0 0 0 0 0 0 0 0.25 0"/>
<feBlend mode="normal" in2="BackgroundImageFix" result="effect1_dropShadow_126_2032"/>
<feBlend mode="normal" in="SourceGraphic" in2="effect1_dropShadow_126_2032" result="shape"/>
</filter>
</defs>
</svg>
