<svg width="37" height="37" viewBox="0 0 37 37" fill="none" xmlns="http://www.w3.org/2000/svg">
<g clip-path="url(#clip0_126_2079)">
<path d="M17.3543 28.2423L25.3963 14.3131L18.7802 10.4933L10.7382 24.4225C10.6275 24.6144 10.5709 24.8327 10.5743 25.0543L11.0174 31.5785L16.8879 28.7005C17.082 28.5927 17.2435 28.4341 17.3543 28.2423ZM27.9925 9.81642C28.3169 9.25429 28.4048 8.58632 28.2368 7.9594C28.0688 7.33248 27.6587 6.79794 27.0967 6.47334L24.7194 5.10084C24.1573 4.77641 23.4893 4.68852 22.8624 4.8565C22.2355 5.02448 21.701 5.43458 21.3764 5.99662L20.0039 8.37385L26.62 12.1937L27.9925 9.81642Z" fill="#16629C"/>
</g>
<defs>
<clipPath id="clip0_126_2079">
<rect width="29.3721" height="29.3721" fill="white" transform="translate(0.819336 7.70386) rotate(-15)"/>
</clipPath>
</defs>
</svg>
