<svg width="17" height="18" viewBox="0 0 17 18" fill="none" xmlns="http://www.w3.org/2000/svg">
<path opacity="0.4" d="M12.4157 5.96294C12.3676 5.95607 12.3195 5.95607 12.2714 5.96294C11.2067 5.92859 10.3618 5.05622 10.3618 3.98466C10.3618 2.89248 11.2479 1.99951 12.347 1.99951C13.4391 1.99951 14.3321 2.88561 14.3321 3.98466C14.3252 5.05622 13.4803 5.92859 12.4157 5.96294Z" fill="#16629C"/>
<path opacity="0.4" d="M14.6545 10.7229C13.8852 11.238 12.8067 11.4304 11.8107 11.2998C12.0717 10.7366 12.2091 10.1115 12.216 9.45209C12.216 8.76519 12.0649 8.11263 11.7764 7.54251C12.793 7.40513 13.8714 7.59745 14.6476 8.11263C15.7329 8.827 15.7329 10.0016 14.6545 10.7229Z" fill="#16629C"/>
<path opacity="0.4" d="M4.7978 5.96294C4.84588 5.95607 4.89397 5.95607 4.94205 5.96294C6.00675 5.92859 6.85164 5.05622 6.85164 3.98466C6.85164 2.89248 5.96554 1.99951 4.86649 1.99951C3.77432 1.99951 2.88135 2.88561 2.88135 3.98466C2.88822 5.05622 3.7331 5.92859 4.7978 5.96294Z" fill="#16629C"/>
<path opacity="0.4" d="M4.87347 9.45222C4.87347 10.1185 5.01771 10.7505 5.27874 11.3206C4.31021 11.4236 3.30046 11.2176 2.55861 10.7299C1.4733 10.0086 1.4733 8.834 2.55861 8.11276C3.29359 7.61819 4.33081 7.41899 5.30621 7.5289C5.02458 8.1059 4.87347 8.75845 4.87347 9.45222Z" fill="#16629C"/>
<path d="M8.69931 11.5266C8.64436 11.5198 8.58254 11.5198 8.52072 11.5266C7.25682 11.4854 6.24707 10.4482 6.24707 9.17056C6.24707 7.86545 7.29803 6.80762 8.61001 6.80762C9.91513 6.80762 10.973 7.86545 10.973 9.17056C10.973 10.4482 9.97008 11.4854 8.69931 11.5266Z" fill="#16629C"/>
<path d="M6.46688 12.9484C5.42966 13.6422 5.42966 14.7824 6.46688 15.4693C7.64835 16.2593 9.58542 16.2593 10.7669 15.4693C11.8041 14.7756 11.8041 13.6353 10.7669 12.9484C9.59229 12.1585 7.65522 12.1585 6.46688 12.9484Z" fill="#16629C"/>
</svg>
