<svg width="20" height="20" viewBox="0 0 20 20" fill="none" xmlns="http://www.w3.org/2000/svg">
<path d="M15.7073 10.7854C15.6145 10.6924 15.5043 10.6187 15.383 10.5684C15.2617 10.5181 15.1317 10.4922 15.0003 10.4922C14.869 10.4922 14.739 10.5181 14.6176 10.5684C14.4963 10.6187 14.3861 10.6924 14.2933 10.7854L12.6993 12.3794C11.9603 12.1594 10.5813 11.6594 9.70733 10.7854C8.83333 9.91139 8.33333 8.53239 8.11333 7.79339L9.70733 6.19939C9.80028 6.1066 9.87402 5.9964 9.92433 5.87508C9.97464 5.75377 10.0005 5.62372 10.0005 5.49239C10.0005 5.36106 9.97464 5.23101 9.92433 5.1097C9.87402 4.98838 9.80028 4.87818 9.70733 4.78539L5.70733 0.785389C5.61455 0.692443 5.50434 0.618705 5.38303 0.568394C5.26171 0.518084 5.13167 0.492188 5.00033 0.492188C4.869 0.492188 4.73896 0.518084 4.61764 0.568394C4.49633 0.618705 4.38612 0.692443 4.29333 0.785389L1.58133 3.49739C1.20133 3.87739 0.987334 4.39939 0.995334 4.93239C1.01833 6.35639 1.39533 11.3024 5.29333 15.2004C9.19133 19.0984 14.1373 19.4744 15.5623 19.4984H15.5903C16.1183 19.4984 16.6173 19.2904 16.9953 18.9124L19.7073 16.2004C19.8003 16.1076 19.874 15.9974 19.9243 15.8761C19.9746 15.7548 20.0005 15.6247 20.0005 15.4934C20.0005 15.3621 19.9746 15.232 19.9243 15.1107C19.874 14.9894 19.8003 14.8792 19.7073 14.7864L15.7073 10.7854ZM15.5803 17.4974C14.3323 17.4764 10.0623 17.1414 6.70733 13.7854C3.34133 10.4194 3.01533 6.13439 2.99533 4.91139L5.00033 2.90639L7.58633 5.49239L6.29333 6.78539C6.1758 6.90284 6.08938 7.04773 6.04189 7.20696C5.9944 7.36619 5.98733 7.53474 6.02133 7.69739C6.04533 7.81239 6.63233 10.5394 8.29233 12.1994C9.95233 13.8594 12.6793 14.4464 12.7943 14.4704C12.9569 14.5053 13.1256 14.4988 13.285 14.4515C13.4444 14.4041 13.5893 14.3174 13.7063 14.1994L15.0003 12.9064L17.5863 15.4924L15.5803 17.4974Z" fill="#1C1C1C"/>
</svg>
