<svg width="32" height="33" viewBox="0 0 32 33" fill="none" xmlns="http://www.w3.org/2000/svg">
<path d="M16.9677 4.24547C10.2451 3.65955 4.29919 8.65212 3.71327 15.3747C3.12734 22.0973 8.11991 28.0432 14.8425 28.6291C21.5651 29.2151 27.511 24.2225 28.0969 17.4999C28.6828 10.7773 23.6903 4.8314 16.9677 4.24547ZM15.055 26.1908C9.67719 25.722 5.68292 20.965 6.15163 15.5872C6.62035 10.2094 11.3774 6.21512 16.7552 6.68384C22.133 7.15256 26.1273 11.9096 25.6586 17.2874C25.1898 22.6652 20.4328 26.6595 15.055 26.1908Z" fill="#16629C"/>
<path d="M11.7167 22.2144L22.0015 16.9686L12.7793 10.0226L11.7167 22.2144Z" fill="#16629C"/>
</svg>
