<svg width="16" height="16" viewBox="0 0 16 16" fill="none" xmlns="http://www.w3.org/2000/svg">
<path d="M13.6184 11.9816C13.2437 11.6227 12.879 11.2535 12.5248 10.8744C12.2272 10.572 12.048 10.352 12.048 10.352L9.808 9.2824C10.7048 8.26531 11.1997 6.95599 11.2 5.6C11.2 2.5128 8.688 0 5.6 0C2.512 0 0 2.5128 0 5.6C0 8.6872 2.512 11.2 5.6 11.2C7.0104 11.2 8.296 10.672 9.2824 9.8088L10.352 12.0488C10.352 12.0488 10.572 12.228 10.8744 12.5256C11.184 12.816 11.5912 13.2088 11.9816 13.6192L13.068 14.7328L13.5512 15.2496L15.248 13.5528L14.7312 13.0696C14.428 12.772 14.0232 12.3768 13.6184 11.9816ZM5.6 9.6C3.3944 9.6 1.6 7.8056 1.6 5.6C1.6 3.3944 3.3944 1.6 5.6 1.6C7.8056 1.6 9.6 3.3944 9.6 5.6C9.6 7.8056 7.8056 9.6 5.6 9.6Z" fill="white"/>
</svg>
