<svg width="234" height="18" viewBox="0 0 234 18" fill="none" xmlns="http://www.w3.org/2000/svg">
<path fill-rule="evenodd" clip-rule="evenodd" d="M62.369 10.6001C52.3158 12.2268 40.7087 13.8456 29.5428 14.2498C19.9991 14.5948 10.7807 14.0589 3.23531 11.779C2.17168 11.458 0.839733 11.6787 0.264513 12.2728C-0.311584 12.8664 0.0847531 13.6097 1.14838 13.9312C9.37947 16.4177 19.416 17.068 29.826 16.6912C41.1928 16.2802 53.0094 14.6506 63.2642 13.0004C64.4541 14.3457 66.9181 15.5999 71.2586 16.5253C77.9253 17.9469 87.028 17.9293 96.6173 17.1282C110.525 15.9669 125.486 13.1977 135.105 11.2299C135.5 11.1497 136.087 11.022 136.806 10.8536C137.026 11.1238 137.271 11.39 137.543 11.6513C139.902 13.9288 144.076 15.7702 148.328 16.4279C175.301 20.5983 206.78 15.6014 232.411 11.5348C233.568 11.3503 234.243 10.6731 233.919 10.0237C233.585 9.3743 232.375 8.997 231.209 9.18149C206.298 13.1345 175.713 18.1221 149.495 14.0697C146.268 13.5705 143.129 12.1553 141.34 10.4269C141.138 10.2341 140.963 10.0369 140.796 9.83674C144.33 8.85949 148.486 7.49712 150.722 6.03882C153.02 4.54383 153.59 2.94803 151.59 1.4408C149.872 0.152313 147.267 0.0426937 144.558 0.71067C141.638 1.42611 138.63 3.09872 137.657 3.88366C135.833 5.34978 135.254 6.94022 135.588 8.491C134.728 8.69359 134.03 8.84431 133.6 8.93239C124.191 10.8566 109.568 13.5725 95.9685 14.7083C87.2183 15.4394 78.9065 15.5368 72.8229 14.24C70.2283 13.6865 68.514 13.0406 67.5836 12.2909C69.4198 11.9845 71.1902 11.6831 72.8817 11.3954C76.2269 10.8262 83.1918 9.88422 88.1679 8.20522C92.1252 6.87025 94.8084 5.05423 94.6523 2.77773C94.5725 1.60816 93.3598 0.827613 91.4298 0.390125C88.5458 -0.263171 83.5583 0.0529492 81.7011 0.273161C76.0681 0.93967 68.55 3.6987 64.8303 6.8076C63.3458 8.04813 62.4628 9.34591 62.369 10.6001ZM66.9961 9.83575C68.5876 9.56856 70.1257 9.30626 71.6032 9.05473C74.7257 8.52329 81.253 7.67913 85.8995 6.11122C88.3599 5.28127 90.3688 4.2869 90.2715 2.87118C90.2636 2.76108 90.0681 2.72977 89.8953 2.68475C89.6279 2.61575 89.3219 2.56827 88.9957 2.53108C86.7886 2.27954 83.824 2.52275 82.6104 2.66662C77.8841 3.22596 71.597 5.55776 68.4763 8.16654C67.8169 8.71756 67.2916 9.27886 66.9961 9.83575ZM139.919 7.36449C141.98 6.77286 144.137 6.0574 145.838 5.27883C146.741 4.86532 147.504 4.44008 147.986 3.99868C148.39 3.63362 148.548 3.25972 148.065 2.89857C147.872 2.75225 147.583 2.74934 147.285 2.77674C146.969 2.8061 146.645 2.86872 146.32 2.94947C144.181 3.47504 141.971 4.70285 141.261 5.27883C140.428 5.9468 140.016 6.65345 139.919 7.36449Z" fill="#5BB6D2"/>
</svg>
